<svg xmlns="http://www.w3.org/2000/svg" version="1.1" xmlns:xlink="http://www.w3.org/1999/xlink" xmlns:svgjs="http://svgjs.dev/svgjs" viewBox="0 0 2560 1440" class="overflow-hidden rounded-md drop-shadow-lg transition duration-300" style="overflow: hidden; height: 85vh;"><rect width="2560" height="1440" fill="#d1e5f7"/><g clip-path="url(&quot;#SvgjsClipPath1615&quot;)"><g transform="matrix(-0.5220890747004789,-1.024657502816623,1.024657502816623,-0.5220890747004789,1151.9044955656736,2368.0058620665955)"><path d="M0,-1440C-12.622111398397726,-1335.1097210632483,-68.74521322272835,-1014.0072733677703,-75.73266839038635,-810.6583263794903C-82.72012355804435,-607.3093793912103,-59.827673749708495,-434.8501363730363,-41.92473100594796,-219.90631807031983C-24.021788262187428,-4.962499767603333,24.425332446833757,258.6720159384844,31.68498807217685,479.00458343680873C38.94464369751994,699.3371509351331,10.180565424867888,901.82536489807,1.633202746110598,1102.0890869196264C-6.914159932646692,1302.3528089411827,-8.88306740746448,1477.1152245943927,-19.599188000366894,1680.5869155661471C-30.315308593269307,1884.0586065379016,-65.93005214469838,2123.0170520111774,-62.66352081130389,2322.919232750153C-59.39698947790941,2522.821413489128,-10.443920135217315,2787.1532054583586,0,2880L 2560 2880 L 2560 -1440 Z" fill="url(&quot;#SvgjsLinearGradient1611&quot;)"/><path d="M640,-1440C632.0111539216782,-1308.13154771977,585.0882336959164,-883.7596381319631,592.0669235300696,-648.78928631862C599.0456133642228,-413.81893450527696,684.5368758753016,-252.4843213739089,681.8721390049192,-30.177889119941426C679.2074021345368,192.12854313402605,583.8820277189947,433.4986452593947,576.0785023077749,685.0493072051846C568.2749768965551,936.5999691509745,616.9310873516027,1242.866923320002,635.0509865376006,1479.1260825547981C653.1708857235984,1715.3852417895944,683.9730618466953,1869.1252763730954,684.7978974237618,2102.6042626139624C685.6227330008284,2336.0832488548294,647.4663162372937,2750.434043768994,640,2880L 2560 2880 L 2560 -1440 Z" fill="url(&quot;#SvgjsLinearGradient1612&quot;)"/><path d="M1280,-1440C1292.6101431331947,-1350.231009764517,1366.4830027101232,-1100.1738050560486,1355.6608587991677,-901.3860585871025C1344.8387148882123,-702.5983121181565,1217.4915968402026,-454.18583685006206,1215.067136534267,-247.27352118632365C1212.6426762283315,-40.36120552258521,1322.5157907423545,122.04047486502608,1341.1140969635549,340.08783539532806C1359.7124031847552,558.13519592563,1330.6813482823827,856.3400853492395,1326.6569738614685,1061.0106419954882C1322.6325994405543,1265.681198641737,1333.67199834295,1359.7930730059988,1316.9678504380693,1568.11117527282C1300.2637025331885,1776.4292775396411,1232.593394838529,2092.2711181418845,1226.4320864321842,2310.9192555964146C1220.2707780258393,2529.5673930509447,1271.072014405364,2785.153209266069,1280,2880L 2560 2880 L 2560 -1440 Z" fill="url(&quot;#SvgjsLinearGradient1613&quot;)"/><path d="M1920,-1440C1919.1199419469424,-1260.9942719587277,1906.5253233421947,-734.1627087489702,1914.719651681654,-365.96563175236645C1922.9139800211135,2.2314452442373067,1968.0363274368556,408.83866200273224,1969.1659700367563,769.1824619796228C1970.295612636657,1129.5262619565133,1929.6918356205176,1444.2942451055803,1921.4975072810582,1796.0971681089766C1913.3031789415988,2147.900091112373,1920.249584546843,2699.349528018163,1920,2880L 2560 2880 L 2560 -1440 Z" fill="url(&quot;#SvgjsLinearGradient1614&quot;)"/></g></g><defs><linearGradient x1="0.1" y1="0" x2="0" y2="1" id="SvgjsLinearGradient1611"><stop stop-color="#d1e5f7" offset="0"/><stop stop-color="#d1ebf7" offset="0"/></linearGradient><linearGradient x1="0.1" y1="0" x2="0" y2="1" id="SvgjsLinearGradient1612"><stop stop-color="#deecf9" offset="0"/><stop stop-color="#def0f9" offset="0.25"/></linearGradient><linearGradient x1="0.1" y1="0" x2="0" y2="1" id="SvgjsLinearGradient1613"><stop stop-color="#eaf3fb" offset="0"/><stop stop-color="#eaf6fb" offset="0.5"/></linearGradient><linearGradient x1="0.1" y1="0" x2="0" y2="1" id="SvgjsLinearGradient1614"><stop stop-color="#f7fbfe" offset="0"/><stop stop-color="#f7fcfe" offset="0.75"/></linearGradient><clipPath id="SvgjsClipPath1615"><rect width="2560" height="1440"/></clipPath></defs></svg>